# xmcd
# Copyright (C) 1995-1998 Ti Kan
#
# Track frame offsets:
#       150
#       10347
#       20702
#       39660
#       49833
#
# Disc length: 801 seconds
#
# Revision: 0
# Processed by: cddbd v1.5.2PL0 Copyright (c) Steve Scherf et al.
# Submitted via: CD-Import v1.0
#
DISCID=3b031f05
DTITLE=Various Artist - 
DYEAR=1900
DGENRE=
TTITLE0=Daniel Johnston - Heartbreak Hotel
TTITLE1=St. Christoph Ensemble - Heartbreak Hotel
TTITLE2=Barbara Trent - Heartbreak Hotel
TTITLE3=Axl, Slash, Izzy, Duff and Stevens - Heartbreak Hotel
TTITLE4=Conway Twitty - Heartbreak Hotel
EXTD=
EXTT0=
EXTT1=
EXTT2=
EXTT3=
EXTT4=
PLAYORDER=
